<svg xmlns="http://www.w3.org/2000/svg" width="80" height="80" viewBox="0 0 80 80"><defs><style>.cls-1{fill:none;}.cls-2{fill:#fff;}.cls-3{fill:#fb0;}.cls-4{fill:#444;}</style></defs><title>Home</title><g id="travel"><rect class="cls-1" width="80" height="80"/></g><g id="Layer_17" data-name="Layer 17"><path class="cls-2" d="M54.9,48.29a14.35,14.35,0,0,0-.46-4.59c-.86-2.4-3.8-4.79-5.75-6.3-1.7-1.33-2.86-2.31-4.53-3.68-1.37-1.12-2.55-2.92-4.49-2.53-1.18.24-2.45,1.58-3.37,2.29-1.09.83-2.12,1.74-3.17,2.61a39.47,39.47,0,0,0-5.4,4.77,10.75,10.75,0,0,0-2.35,7.26,70.62,70.62,0,0,0,.2,9c.21,1.84,1.36,1.95,3,2,.59,0,7.41,0,7.41,0,0-1.81.11-3.61.19-5.41.06-1.49,0-3,1.19-4.13a4,4,0,0,1,3.58-1c1.7.49,2.44,2.43,2.73,4A22.75,22.75,0,0,1,44,55.9c0,.62-.25,2.9.2,3.23.29.21,1.48,0,1.85,0h1.85c1.24,0,2.47,0,3.71-.13,2-.13,2.8-.88,2.94-2.68a58.44,58.44,0,0,0,.37-6.2C54.89,49.86,54.9,48.6,54.9,48.29Z"/><path class="cls-3" d="M60.5,37.83a3.91,3.91,0,0,0-1.17-2,.62.62,0,0,0-.22-.15,2.49,2.49,0,0,0-.44-.42,9.15,9.15,0,0,0-1-1l-3.15-2.82a2,2,0,0,1-.54-.62,2.21,2.21,0,0,1-.13-1.17c.19-2.87.27-5.75.24-8.62a1.1,1.1,0,0,0-.21-.78,1.08,1.08,0,0,0-.58-.24A13.48,13.48,0,0,0,48.57,20a1.17,1.17,0,0,0-.81.36,1.27,1.27,0,0,0-.16.72c0,1.46,0,2.91,0,4.37-1.16-.82-2.16-1.85-3.27-2.74A7.09,7.09,0,0,0,40.48,21c-2.36-.14-4.4,1.53-6.17,3.11l-5.37,4.79c-1.46,1.08-2.71,2.34-4.13,3.48-.61.48-1.14,1.06-1.76,1.52a18.43,18.43,0,0,0-1.87,1.54c-1,1-2,2.28-1.71,3.77a2.23,2.23,0,0,0,2.31,1.67,5.4,5.4,0,0,0,3.53-1.58c.57-.47,1.07-1.2,1.61-1.75s1.33-1.37,2-2,1.47-1.08,2.19-1.64,1.64-1.3,2.45-2,1.58-1.3,2.35-2a9.37,9.37,0,0,1,3.14-2.19c2.59-.84,4.12,1.44,5.85,2.91a24.35,24.35,0,0,0,3.54,3.07,13.36,13.36,0,0,0,1.57,1.21c.71.54,1.36,1.19,2,1.8s.93,1.11,1.49,1.58.91.85,1.39,1.28.86.95,1.61,1h0c1.19.37,3.09.37,3.76-.91l0-.12v0a1.48,1.48,0,0,0,.13-.35A3.82,3.82,0,0,0,60.5,37.83Z"/><path class="cls-3" d="M40.51,36.82c-3.15,0-3.63,4.91-.46,4.91S43.68,36.82,40.51,36.82Z"/><path class="cls-4" d="M56.06,47.22a19.13,19.13,0,0,0-.35-3,8.1,8.1,0,0,0-1.5-3A23.17,23.17,0,0,0,52,39.08c-2-1.85-4-3.59-6.06-5.31l-2.39-2-1.19-1A3.09,3.09,0,0,0,40.66,30a4.75,4.75,0,0,0-1.55.09,2.86,2.86,0,0,0-1.24.71l-1.55,1.3c-1,.86-2.08,1.72-3.11,2.59-1.68,1.42-3.34,2.86-4.94,4.37a24.56,24.56,0,0,0-2.18,2.15,8.15,8.15,0,0,0-1.49,3,19.14,19.14,0,0,0-.35,3c-.13,1.59,0,3.21,0,4.8s0,3.23,0,4.85a4.89,4.89,0,0,0,.51,2.35,1.94,1.94,0,0,0,1.65.93c1.25.12,2.54,0,3.8,0h6.19a1,1,0,0,0,1-1V53.47a4.43,4.43,0,0,1,.89-3.06,1.79,1.79,0,0,1,1.21-.71,5.29,5.29,0,0,1,1.38.07A2.4,2.4,0,0,1,42.5,51.4a4.63,4.63,0,0,1,.3.81,9.23,9.23,0,0,1,.1,2.35v4.08c0,.68.14,1.51,1,1.51h6.18c1.26,0,2.55.11,3.81,0a2,2,0,0,0,1.65-.93,4.93,4.93,0,0,0,.51-2.36c0-1.62,0-3.23,0-4.85S56.18,48.81,56.06,47.22Zm-2,3.86,0,4.22c0,.62,0,1.25,0,1.87a1.68,1.68,0,0,1-.11.89s-.15.11-.21.12a1.22,1.22,0,0,1-.27,0c-.25,0-.49,0-.74,0H44.9V53.59A7.4,7.4,0,0,0,44.06,50a4.18,4.18,0,0,0-1-1.3,4.82,4.82,0,0,0-4.43-.87,3.76,3.76,0,0,0-1.51.93,6,6,0,0,0-1.69,3.78v5.54H26.85a1.18,1.18,0,0,1-.27,0s-.18-.13-.2-.13a1.75,1.75,0,0,1-.12-.88c0-.63,0-1.25,0-1.88,0-1.4,0-2.81,0-4.22s-.07-2.68.05-4a17.79,17.79,0,0,1,.39-2.41,4.3,4.3,0,0,1,.86-2c.76-.79,1.55-1.57,2.35-2.32,1.63-1.54,3.33-3,5-4.46l2.34-2,1.19-1,.61-.51a1.81,1.81,0,0,1,1.27-.46c.55.05.84.44,1.22.77l1.29,1.07,2.57,2.15c1.71,1.44,3.41,2.91,5.05,4.45.8.76,1.58,1.53,2.35,2.32a4.37,4.37,0,0,1,.85,2A15.13,15.13,0,0,1,54,47.06,38.48,38.48,0,0,1,54.09,51.08Z"/></g></svg>