<?xml version="1.0" encoding="UTF-8"?><svg id="Layer_1" xmlns="http://www.w3.org/2000/svg" width="48" height="48" viewBox="0 0 48 48"><path d="M21.54,23.15h-6c-1.04,0-1.89-.85-1.89-1.89v-6c0-1.04.85-1.89,1.89-1.89h6c1.04,0,1.89.85,1.89,1.89v6c0,1.04-.85,1.89-1.89,1.89ZM15.54,14.67c-.33,0-.59.27-.59.59v6c0,.33.27.59.59.59h6c.33,0,.59-.27.59-.59v-6c0-.33-.27-.59-.59-.59h-6Z" fill="#444" stroke="#444" stroke-miterlimit="10" stroke-width=".36"/><path d="M32.58,23.15h-6c-1.04,0-1.89-.85-1.89-1.89v-6c0-1.04.85-1.89,1.89-1.89h6c1.04,0,1.89.85,1.89,1.89v6c0,1.04-.85,1.89-1.89,1.89ZM26.58,14.67c-.33,0-.59.27-.59.59v6c0,.33.27.59.59.59h6c.33,0,.59-.27.59-.59v-6c0-.33-.26-.59-.59-.59h-6Z" fill="#444" stroke="#444" stroke-miterlimit="10" stroke-width=".36"/><path d="M21.54,34.59h-6c-1.04,0-1.89-.85-1.89-1.89v-6c0-1.04.85-1.89,1.89-1.89h6c1.04,0,1.89.85,1.89,1.89v6c0,1.04-.85,1.89-1.89,1.89ZM15.54,26.11c-.33,0-.59.27-.59.59v6c0,.33.27.59.59.59h6c.33,0,.59-.27.59-.59v-6c0-.33-.27-.59-.59-.59h-6Z" fill="#444" stroke="#444" stroke-miterlimit="10" stroke-width=".36"/><path d="M29.77,33.11c-.36,0-.65-.29-.65-.65v-6.78c0-.36.29-.65.65-.65s.65.29.65.65v6.78c0,.36-.29.65-.65.65Z" fill="#444" stroke="#444" stroke-miterlimit="10" stroke-width=".36"/><path d="M33.17,29.72h-6.78c-.36,0-.65-.29-.65-.65s.29-.65.65-.65h6.78c.36,0,.65.29.65.65s-.29.65-.65.65Z" fill="#444" stroke="#444" stroke-miterlimit="10" stroke-width=".36"/><circle cx="24.06" cy="24" r="18.35" fill="none" stroke="#ffb600" stroke-linecap="round" stroke-miterlimit="10" stroke-width="1.57"/><line x1="37.84" y1="11.92" x2="11.35" y2="37.22" fill="none" stroke="#ffb600" stroke-linecap="round" stroke-miterlimit="10" stroke-width="1.57"/></svg>