<?xml version="1.0" encoding="UTF-8"?><svg id="Layer_1" xmlns="http://www.w3.org/2000/svg" width="48" height="48" viewBox="0 0 48 48"><path d="M25.5,4.7l-1.37-.45c-.35-.11-.71-.17-1.07-.17-.39,0-.78.07-1.15.2l-11.93,4.24c-.82.27-1.34.99-1.34,1.81l.03,11.22c0,5.1,2.25,9.91,6.14,13.19l7.13,6.02c1.11,1.06,2.68,1.04,3.63.08l6.92-6.66c3.61-3.47,5.72-8.34,5.79-13.34l.15-10.54c0-.78-.52-1.5-1.3-1.76l-6.15-2.02" fill="none" stroke="#444" stroke-linecap="round" stroke-linejoin="round" stroke-width="1.55"/><path d="M24.84,8.32l-.83-.23c-.28-.09-.56-.14-.85-.14-.31,0-.62.05-.91.16l-9.46,3.37c-.65.22-1.06.79-1.06,1.43l.02,8.9c0,4.05,1.78,7.86,4.87,10.47l5.66,4.77c.88.84,2.12.83,2.88.07l5.49-5.29c2.86-2.75,4.53-6.61,4.59-10.59l.12-8.36c0-.62-.42-1.19-1.03-1.39l-5.16-1.7" fill="none" stroke="#444" stroke-linecap="round" stroke-linejoin="round" stroke-width="1.55"/><polyline points="25.76 4.75 23.54 14.67 26.03 15.57 23.54 26.68 30.96 14.67 28.04 12.75 30.46 6.33" fill="none" stroke="#ffb600" stroke-linecap="round" stroke-linejoin="round" stroke-width="1.62"/></svg>