<?xml version="1.0" encoding="UTF-8"?><svg id="Layer_1" xmlns="http://www.w3.org/2000/svg" width="48" height="48" viewBox="0 0 48 48"><g id="Layer_18"><circle cx="37.55" cy="23.63" r="3.15" fill="none" stroke="#444445" stroke-miterlimit="10" stroke-width="1.44"/><path d="M42.72,19.5s-.04-.08-.05-.12c-.38-.33-.66-.56-.86-.86-.2-.34-.29-.74-.5-1.07-.38-.56-.95-.97-1.61-1.16-1.44-.3-2.94-.09-4.24.59-1.32.54-2.66,1.14-3.88,1.78-.04.01-.07.03-.1.06-1.22.68-2.62.97-4.01.82-1.3-.18-2.61-.23-3.92-.16-2.63.21-5.18.98-7.49,2.24-2.43,1.36-4.57,3.17-6.3,5.35-1.27,1.63-2.18,3.65-3.65,5.19,0,0-.02.02-.03.03.51.19.86.56,1.05,1.01,1.05-1.1,1.84-2.45,2.69-3.74.61.98,1.75,1.5,2.9,1.32.88-.21,1.72-.55,2.5-1.03.98-.56,1.99-1.08,2.98-1.64,2.08-1.2,4.19-2.33,6.27-3.53,1.31-.76,2.64-1.47,3.92-2.26,2.2-1.41,4.51-2.66,6.9-3.73,1.06-.57,2.22-.9,3.41-.99.45-.02.89.12,1.26.38.46.36.51,1,.84,1.45.33.45.71.7.7,1.22-.07.53-.43.98-.94,1.16-.75.34-.04,1.59.72,1.25,1.38-.59,2.01-2.19,1.42-3.57ZM14.67,28.34c-.96.55-3.17,1.82-3.85.23-.33-.78.66-1.49,1.1-1.93.44-.44.73-.74,1.12-1.1.99-.92,2.08-1.72,3.25-2.4l.14.13c.08.13.21.23.31.35,0,0,.07.12.07.12l.12.22c.09.15.17.3.3.42l1.28,1.83c-1.23.69-2.53,1.42-3.84,2.12ZM19.84,25.48c-.46-.66-.92-1.33-1.38-1.98-.26-.38-.54-.74-.84-1.08,2.18-1.06,4.56-1.62,6.98-1.66.99.02,1.98.1,2.96.23-2.54,1.55-5.13,3.03-7.72,4.49Z" fill="#444445" stroke-width="0"/><path d="M34.31,25.04c-4.79,2.69-9.55,5.43-14.3,8.17.38.09.75.2,1.13.33.24.08.47.18.71.28,4.38-2.51,8.77-5.03,13.18-7.53.74-.42.03-1.66-.72-1.25Z" fill="#444445" stroke-width="0"/></g><path d="M5.75,31.61s5.47,6.41,12,.52c.29-.26.72-.26.97.03,1.29,1.49,5.36,5.15,11.02-.03.29-.26.73-.26.98.03,1.3,1.52,5.45,5.22,11.23-.56" fill="none" stroke="#ffb600" stroke-linecap="round" stroke-miterlimit="10" stroke-width="1.56"/><path d="M5.75,35.47s5.47,6.41,12,.52c.29-.26.72-.26.97.03,1.29,1.49,5.36,5.15,11.02-.03.29-.26.73-.26.98.03,1.3,1.52,5.45,5.22,11.23-.56" fill="none" stroke="#ffb600" stroke-linecap="round" stroke-miterlimit="10" stroke-width="1.56"/><path d="M5.75,39.32s5.47,6.41,12,.52c.29-.26.72-.26.97.03,1.29,1.49,5.36,5.15,11.02-.03.29-.26.73-.26.98.03,1.3,1.52,5.45,5.22,11.23-.56" fill="none" stroke="#ffb600" stroke-linecap="round" stroke-miterlimit="10" stroke-width="1.56"/></svg>