<?xml version="1.0" encoding="UTF-8"?><svg id="Layer_1" xmlns="http://www.w3.org/2000/svg" width="48" height="48" viewBox="0 0 48 48"><path d="M24.84,41.94v-22.54c-.38-1.88-1.65-2.63-1.65-2.63-1.57-1.15-1.64-8.62-1.64-8.62h-2.64s-.07,7.47-1.64,8.62c0,0-1.27.74-1.65,2.63v20.93" fill="none" stroke="#444" stroke-linecap="round" stroke-linejoin="round" stroke-width="1.55"/><path d="M32.22,40.91l.08-17.11c-.31-1.52-1.33-2.12-1.33-2.12-1.27-.93-1.33-6.96-1.33-6.96h-2.13s-.06,6.03-1.33,6.96c0,0-1.02.6-1.33,2.12v18.2" fill="none" stroke="#444" stroke-linecap="round" stroke-linejoin="round" stroke-width="1.55"/><circle cx="23.81" cy="24.25" r="18.66" fill="none" stroke="#ffb600" stroke-linecap="round" stroke-miterlimit="10" stroke-width="1.6"/><line x1="37.83" y1="11.97" x2="10.89" y2="37.69" fill="none" stroke="#ffb600" stroke-linecap="round" stroke-miterlimit="10" stroke-width="1.6"/></svg>