<?xml version="1.0" encoding="UTF-8"?><svg id="Layer_1" xmlns="http://www.w3.org/2000/svg" width="48" height="48" viewBox="0 0 48 48"><path d="M11.98,20.58c-.69-.08-.99-.58-1.29-1.08-.09-.15-.18-.31-.3-.45-.32-.38-.37-.77-.22-1.27.39-1.23.09-2.35-.76-3.31-.88-1-.86-1.87.08-2.82.76-.76,1.52-1.52,2.28-2.28.83-.83,1.79-.84,2.65-.06,1.12,1.02,2.4,1.28,3.8.69,1.39-.59,2.11-1.68,2.17-3.19.04-1.11.76-1.8,1.87-1.8,1.15,0,2.3,0,3.45,0,1.1,0,1.82.7,1.87,1.8.06,1.52.78,2.61,2.17,3.19,1.4.59,2.68.32,3.8-.69.87-.78,1.82-.76,2.65.06.8.79,1.59,1.59,2.39,2.39.8.81.82,1.78.05,2.62-.47.51-.8,1.09-.93,1.77-.07.37-.28.55-.67.53-.43-.03-.87-.02-1.3-.07-.23-.02-.35.05-.43.26-.13.33-.28.64-.48,1.07,1.02-.76,1.92-.12,2.83,0,.12.02.25.21.32.35.67,1.32,1.73,2,3.21,2.05,1.05.04,1.74.78,1.75,1.84,0,1.16,0,2.33,0,3.49,0,1.08-.7,1.81-1.78,1.85-1.53.06-2.63.78-3.22,2.19-.59,1.42-.3,2.7.73,3.83.74.81.72,1.79-.05,2.57-.82.83-1.64,1.65-2.47,2.47-.76.75-1.75.78-2.54.05-.53-.49-1.12-.84-1.84-.97-.37-.07-.54-.3-.52-.68.03-.45.06-.89.06-1.34,0-.11-.08-.28-.17-.32-.33-.18-.69-.32-1.04-.48-.02.04-.04.07-.03.07.36.46.35.96.19,1.48-.03.11-.06.22-.07.34-.06.66-.33,1.11-.97,1.45-1.07.58-1.59,1.59-1.64,2.81-.05,1.21-.74,1.89-1.94,1.89-1.11,0-2.22,0-3.34,0-1.16,0-1.87-.69-1.92-1.83-.08-2.04-1.69-3.54-3.72-3.46-.83.04-1.56.36-2.18.92-.97.87-1.87.85-2.79-.07-.75-.75-1.5-1.5-2.25-2.25-.88-.89-.9-1.81-.07-2.73.92-1.03,1.2-2.21.75-3.52-.44-1.3-1.37-2.1-2.73-2.36-.21-.04-.43-.04-.65-.05-1.01-.07-1.71-.79-1.71-1.8,0-1.19,0-2.38,0-3.57,0-1.02.69-1.77,1.7-1.81.76-.03,1.46-.21,2.09-.64.29-.2.56-.13.78.12.3.33.61.66.9,1,.12.14.23.2.42.11.34-.15.69-.27,1.03-.4ZM9.18,20.98c-.82.17-1.53.35-2.25.45-.57.08-.81.27-.81.85,0,1.13,0,2.25,0,3.38,0,.57.23.81.81.83,1.95.1,3.35,1.04,4.1,2.84.75,1.8.42,3.45-.87,4.91-.41.46-.41.76.01,1.19.78.79,1.57,1.58,2.36,2.36.43.43.73.43,1.19.02,1.46-1.29,3.11-1.63,4.91-.88,1.8.75,2.74,2.15,2.84,4.1.03.59.26.82.87.82,1.09,0,2.17,0,3.26,0,.68,0,.89-.21.92-.88.07-1.49.69-2.7,1.93-3.52.49-.33.7-.7.78-1.24.05-.31.02-.56-.14-.83-.28-.46-.53-.93-.8-1.4-.14-.25-.16-.49.05-.71.19-.2.42-.2.67-.09,1.01.46,2.02.92,3.03,1.38.28.13.41.33.39.64-.03.42-.06.84-.06,1.26,0,.11.11.26.21.32.56.36,1.17.67,1.71,1.07.45.32.74.36,1.14-.04.8-.79,1.59-1.59,2.39-2.39.41-.41.42-.73.03-1.16-1.31-1.46-1.65-3.13-.89-4.94.75-1.79,2.15-2.73,4.11-2.83.57-.03.8-.26.8-.84,0-1.11,0-2.23,0-3.34,0-.62-.22-.84-.86-.87-1.5-.07-2.73-.69-3.56-1.94-.32-.49-.68-.67-1.21-.76-.33-.06-.59-.03-.86.14-.44.28-.91.52-1.36.78-.24.14-.49.18-.71-.02-.22-.2-.22-.44-.1-.7.46-1,.92-2,1.36-3,.13-.29.34-.43.66-.41.41.03.82.04,1.23.07.19.01.27-.05.36-.23.31-.58.64-1.16,1.03-1.69.34-.46.38-.76-.04-1.17-.76-.76-1.52-1.52-2.28-2.28-.55-.55-.77-.54-1.36-.04-1.27,1.1-2.73,1.46-4.36.98-1.97-.58-3.22-2.21-3.31-4.27-.02-.55-.25-.82-.75-.82-1.19,0-2.38,0-3.57,0-.44,0-.69.24-.73.68-.02.23-.01.46-.05.69-.31,1.81-1.34,3.05-3.06,3.65-1.73.6-3.3.23-4.66-.99-.43-.39-.75-.39-1.16.02-.79.78-1.57,1.57-2.36,2.36-.45.45-.44.74-.01,1.22,1.02,1.14,1.46,2.47,1.13,3.97-.11.5,0,.83.26,1.22.22.34.47.56.89.64.47.09.94.25,1.4.38.26.07.47.2.49.51.02.32-.18.48-.45.59-1.01.37-2.01.75-3.01,1.13-.33.13-.59.08-.82-.19-.32-.37-.65-.72-.88-.97Z" fill="#444" stroke="#444" stroke-miterlimit="10" stroke-width=".42"/><path d="M33.38,23.95c0,5.18-4.19,9.39-9.38,9.38-5.19,0-9.38-4.2-9.37-9.39,0-5.17,4.18-9.35,9.36-9.36,5.19-.01,9.38,4.18,9.39,9.37ZM32.3,23.96c0-4.59-3.69-8.29-8.28-8.31-4.6-.01-8.33,3.7-8.33,8.3,0,4.6,3.72,8.32,8.32,8.31,4.59,0,8.29-3.72,8.29-8.3Z" fill="#444" stroke="#444" stroke-miterlimit="10" stroke-width=".42"/><path d="M23.98,28.46c-1.55,0-3.1,0-4.65,0-1.03,0-1.69-.67-1.58-1.59.03-.23.12-.46.24-.67,1.56-2.72,3.13-5.44,4.7-8.15.65-1.12,1.96-1.13,2.61,0,1.57,2.71,3.14,5.43,4.7,8.15.65,1.13.02,2.25-1.29,2.26-1.58.02-3.15,0-4.73,0ZM24,27.28c1.52,0,3.04,0,4.56,0,.56,0,.63-.13.35-.62-1.52-2.63-3.03-5.26-4.55-7.89-.28-.48-.43-.48-.71,0-1.52,2.63-3.04,5.26-4.55,7.89-.28.49-.21.62.36.62,1.52,0,3.04,0,4.56,0Z" fill="#ffb600" stroke="#ffb600" stroke-miterlimit="10" stroke-width=".19"/><path d="M24.63,22.57c0,.57,0,1.15,0,1.72,0,.46-.25.72-.64.71-.39,0-.62-.26-.63-.72,0-1.13,0-2.26,0-3.39,0-.45.25-.72.64-.71.38,0,.62.27.63.73,0,.56,0,1.12,0,1.67Z" fill="#ffb600" stroke="#ffb600" stroke-miterlimit="10" stroke-width=".2"/><path d="M24.01,26.83c-.4,0-.73-.31-.73-.7,0-.39.32-.72.71-.73.4,0,.73.31.73.71,0,.39-.31.72-.71.72Z" fill="#ffb600" stroke="#ffb600" stroke-miterlimit="10" stroke-width=".2"/></svg>